{
	"asset":{
		"generator":"Khronos glTF Blender I/O v4.0.43",
		"version":"2.0"
	},
	"scene":0,
	"scenes":[
		{
			"name":"Scene",
			"nodes":[
				0
			]
		}
	],
	"nodes":[
		{
			"mesh":0,
			"name":"dice"
		}
	],
	"materials":[
		{
			"doubleSided":true,
			"name":"DiceMaterial.013",
			"pbrMetallicRoughness":{
				"metallicFactor":0,
				"roughnessFactor":0.800000011920929
			}
		}
	],
	"meshes":[
		{
			"name":"\u7acb\u65b9\u4f53.011",
			"primitives":[
				{
					"attributes":{
						"POSITION":0,
						"NORMAL":1,
						"TEXCOORD_0":2
					},
					"indices":3,
					"material":0
				}
			]
		}
	],
	"accessors":[
		{
			"bufferView":0,
			"componentType":5126,
			"count":936,
			"max":[
				0.5,
				0.5,
				0.5
			],
			"min":[
				-0.5,
				-0.5,
				-0.5
			],
			"type":"VEC3"
		},
		{
			"bufferView":1,
			"componentType":5126,
			"count":936,
			"type":"VEC3"
		},
		{
			"bufferView":2,
			"componentType":5126,
			"count":936,
			"type":"VEC2"
		},
		{
			"bufferView":3,
			"componentType":5123,
			"count":1284,
			"type":"SCALAR"
		}
	],
	"bufferViews":[
		{
			"buffer":0,
			"byteLength":11232,
			"byteOffset":0,
			"target":34962
		},
		{
			"buffer":0,
			"byteLength":11232,
			"byteOffset":11232,
			"target":34962
		},
		{
			"buffer":0,
			"byteLength":7488,
			"byteOffset":22464,
			"target":34962
		},
		{
			"buffer":0,
			"byteLength":2568,
			"byteOffset":29952,
			"target":34963
		}
	],
	"buffers":[
		{
			"byteLength":32520,
			"uri":"dice_unwrapped.bin"
		}
	]
}
